# xmcd
# 
# Track frame offsets:
#     150
#     11337
#     28272
#     45257
#     57415
#     70785
#     95050
#     111190
#     135287
#     152307
#     165957
#     185950
#     214465
#     241780
#     263650
# 
# Disc length: 3707
# 
# Revision: 1
# Processed by: cddbd v1.5.2PL0 Copyright (c) Steve Scherf et al.
# Submitted via: BonkEnc v1.0.15
# 
DISCID=c10e790f
DTITLE=Various Artist - Muddy Waters School
DYEAR=1998
DGENRE=Blues
TTITLE0=Little Walter - I Just Keep Loving Her
TTITLE1=Sunnyland Slim - Bessie Mae
TTITLE2=Muddy Waters with George Smith - Hoochie Coochie Man
TTITLE3=Otis Span with James Cotton - Must Have Been The Devil
TTITLE4=Big Walter Horton - Black Gal
TTITLE5=Jimmy Rogers - You're Sweet
TTITLE6=Dave Myers - You Can't Do That
TTITLE7=Junior Wells With Buddy Guy - Country Girl
TTITLE8=James Cotton - Blow Wind Blow
TTITLE9=George Smith - Telephone Blues
TTITLE10=Earl Hooker - End Of The Blues
TTITLE11=Buddy Guy - First Time I Met The Blues
TTITLE12=Mojo Buford - I'm So Glad
TTITLE13=Pinetop Perkins - High Heel Sneakers
TTITLE14=Carey Bell - Rollin' And Tumblin'
EXTD=YEAR: 1998
EXTT0=
EXTT1=
EXTT2=
EXTT3=
EXTT4=
EXTT5=
EXTT6=
EXTT7=
EXTT8=
EXTT9=
EXTT10=
EXTT11=
EXTT12=
EXTT13=
EXTT14=
PLAYORDER=
